<svg xmlns="http://www.w3.org/2000/svg" width="180" height="180" viewBox="0 0 64 64">
  <rect width="64" height="64" fill="#0a2624"/>
  <g fill="none" stroke="#dd9075" stroke-linecap="round">
    <path d="M33.6 16 C40.8 16 46.4 21.6 46.4 28.8 C46.4 33.6 43.68 37.12 40 39.2 C37.92 40.32 37.44 42.4 38.4 44.16 C39.36 45.92 38.08 47.68 36.16 47.2 C30.72 45.92 27.2 41.28 27.2 35.68 C27.2 32.48 28.64 29.76 31.04 28 C32.8 26.72 33.6 24.96 33.28 22.88 C32.96 20.32 30.72 18.4 28.16 18.4" stroke-width="3.5"/>
    <path d="M14.4,24.8 A6.4,6.4 0 0,1 14.4,37.6" stroke-width="2.9"/>
    <path d="M8.8,20 A11.2,11.2 0 0,1 8.8,42.4" stroke-width="2.9" opacity="0.75"/>
    <path d="M3.2,15.2 A16,16 0 0,1 3.2,47.2" stroke-width="2.6" opacity="0.5"/>
  </g>
</svg>
