<svg xmlns="http://www.w3.org/2000/svg" viewBox="0 0 40 40" fill="none">
  <rect width="40" height="40" rx="8" fill="#0a2624"/>
  <g fill="none" stroke="#dd9075" stroke-width="2.2" stroke-linecap="round">
    <path d="M21 10 C25.5 10 29 13.5 29 18 C29 21 27.3 23.2 25 24.5 C23.7 25.2 23.4 26.5 24 27.6 C24.6 28.7 23.8 29.8 22.6 29.5 C19.2 28.7 17 25.8 17 22.3 C17 20.3 17.9 18.6 19.4 17.5 C20.5 16.7 21 15.6 20.8 14.3 C20.6 12.7 19.2 11.5 17.6 11.5"/>
    <path d="M9,15.5 A4,4 0 0,1 9,23.5" stroke-width="1.8"/>
    <path d="M5.5,12.5 A7,7 0 0,1 5.5,26.5" stroke-width="1.8" opacity="0.75"/>
    <path d="M2,9.5 A10,10 0 0,1 2,29.5" stroke-width="1.6" opacity="0.5"/>
  </g>
</svg>
